<mxfile host="app.diagrams.net" modified="2022-12-22T15:42:14.838Z" agent="5.0 (Windows NT 10.0; Win64; x64) AppleWebKit/537.36 (KHTML, like Gecko) Chrome/108.0.0.0 Safari/537.36" etag="q8VKJjm0YRcSxHDr6Xw_" version="20.7.4" type="github">
  <diagram id="6a731a19-8d31-9384-78a2-239565b7b9f0" name="Page-1">
    <mxGraphModel dx="1434" dy="796" grid="1" gridSize="10" guides="1" tooltips="1" connect="1" arrows="1" fold="1" page="1" pageScale="1" pageWidth="1169" pageHeight="827" background="none" math="0" shadow="0">
      <root>
        <mxCell id="0" />
        <mxCell id="1" parent="0" />
        <mxCell id="CUs4rStnzdPTpRsURDmQ-59" style="edgeStyle=orthogonalEdgeStyle;rounded=0;orthogonalLoop=1;jettySize=auto;html=1;exitX=0.5;exitY=1;exitDx=0;exitDy=0;entryX=0.5;entryY=0;entryDx=0;entryDy=0;" edge="1" parent="1" source="CUs4rStnzdPTpRsURDmQ-56" target="CUs4rStnzdPTpRsURDmQ-58">
          <mxGeometry relative="1" as="geometry" />
        </mxCell>
        <mxCell id="CUs4rStnzdPTpRsURDmQ-56" value="开始" style="rounded=1;whiteSpace=wrap;html=1;" vertex="1" parent="1">
          <mxGeometry x="250" y="190" width="120" height="60" as="geometry" />
        </mxCell>
        <mxCell id="CUs4rStnzdPTpRsURDmQ-70" style="edgeStyle=orthogonalEdgeStyle;rounded=0;orthogonalLoop=1;jettySize=auto;html=1;exitX=0.5;exitY=1;exitDx=0;exitDy=0;entryX=0.5;entryY=0;entryDx=0;entryDy=0;" edge="1" parent="1" source="CUs4rStnzdPTpRsURDmQ-58" target="CUs4rStnzdPTpRsURDmQ-60">
          <mxGeometry relative="1" as="geometry" />
        </mxCell>
        <mxCell id="CUs4rStnzdPTpRsURDmQ-58" value="双向初始化麻雀种群X" style="rounded=0;whiteSpace=wrap;html=1;" vertex="1" parent="1">
          <mxGeometry x="170" y="280" width="280" height="60" as="geometry" />
        </mxCell>
        <mxCell id="CUs4rStnzdPTpRsURDmQ-71" style="edgeStyle=orthogonalEdgeStyle;rounded=0;orthogonalLoop=1;jettySize=auto;html=1;exitX=0.5;exitY=1;exitDx=0;exitDy=0;entryX=0.5;entryY=0;entryDx=0;entryDy=0;" edge="1" parent="1" source="CUs4rStnzdPTpRsURDmQ-60" target="CUs4rStnzdPTpRsURDmQ-61">
          <mxGeometry relative="1" as="geometry" />
        </mxCell>
        <mxCell id="CUs4rStnzdPTpRsURDmQ-60" value="计算Xt的适应度和约束违规度" style="rounded=0;whiteSpace=wrap;html=1;" vertex="1" parent="1">
          <mxGeometry x="170" y="360" width="280" height="60" as="geometry" />
        </mxCell>
        <mxCell id="CUs4rStnzdPTpRsURDmQ-72" style="edgeStyle=orthogonalEdgeStyle;rounded=0;orthogonalLoop=1;jettySize=auto;html=1;exitX=0.5;exitY=1;exitDx=0;exitDy=0;entryX=0.5;entryY=0;entryDx=0;entryDy=0;" edge="1" parent="1" source="CUs4rStnzdPTpRsURDmQ-61" target="CUs4rStnzdPTpRsURDmQ-62">
          <mxGeometry relative="1" as="geometry" />
        </mxCell>
        <mxCell id="CUs4rStnzdPTpRsURDmQ-61" value="将X整体按照约束违规度排序" style="rounded=0;whiteSpace=wrap;html=1;" vertex="1" parent="1">
          <mxGeometry x="170" y="440" width="280" height="60" as="geometry" />
        </mxCell>
        <mxCell id="CUs4rStnzdPTpRsURDmQ-74" style="edgeStyle=orthogonalEdgeStyle;rounded=0;orthogonalLoop=1;jettySize=auto;html=1;exitX=0.5;exitY=1;exitDx=0;exitDy=0;entryX=0.5;entryY=0;entryDx=0;entryDy=0;" edge="1" parent="1" source="CUs4rStnzdPTpRsURDmQ-62" target="CUs4rStnzdPTpRsURDmQ-63">
          <mxGeometry relative="1" as="geometry" />
        </mxCell>
        <mxCell id="CUs4rStnzdPTpRsURDmQ-62" value="将排序后的前20%个体按照适应度二次排序" style="rounded=0;whiteSpace=wrap;html=1;" vertex="1" parent="1">
          <mxGeometry x="170" y="520" width="280" height="60" as="geometry" />
        </mxCell>
        <mxCell id="CUs4rStnzdPTpRsURDmQ-75" style="edgeStyle=orthogonalEdgeStyle;rounded=0;orthogonalLoop=1;jettySize=auto;html=1;exitX=0.5;exitY=1;exitDx=0;exitDy=0;entryX=0.5;entryY=0;entryDx=0;entryDy=0;" edge="1" parent="1" source="CUs4rStnzdPTpRsURDmQ-63" target="CUs4rStnzdPTpRsURDmQ-65">
          <mxGeometry relative="1" as="geometry" />
        </mxCell>
        <mxCell id="CUs4rStnzdPTpRsURDmQ-63" value="找到fg、fw、xb、xp和xw" style="rounded=0;whiteSpace=wrap;html=1;" vertex="1" parent="1">
          <mxGeometry x="170" y="600" width="280" height="60" as="geometry" />
        </mxCell>
        <mxCell id="CUs4rStnzdPTpRsURDmQ-76" style="edgeStyle=orthogonalEdgeStyle;rounded=0;orthogonalLoop=1;jettySize=auto;html=1;exitX=0.5;exitY=1;exitDx=0;exitDy=0;entryX=0.5;entryY=0;entryDx=0;entryDy=0;" edge="1" parent="1" source="CUs4rStnzdPTpRsURDmQ-65" target="CUs4rStnzdPTpRsURDmQ-66">
          <mxGeometry relative="1" as="geometry" />
        </mxCell>
        <mxCell id="CUs4rStnzdPTpRsURDmQ-80" style="edgeStyle=orthogonalEdgeStyle;rounded=0;orthogonalLoop=1;jettySize=auto;html=1;exitX=1;exitY=0.5;exitDx=0;exitDy=0;" edge="1" parent="1" source="CUs4rStnzdPTpRsURDmQ-65" target="CUs4rStnzdPTpRsURDmQ-69">
          <mxGeometry relative="1" as="geometry" />
        </mxCell>
        <mxCell id="CUs4rStnzdPTpRsURDmQ-65" value="t&amp;lt;tmax?" style="rhombus;whiteSpace=wrap;html=1;" vertex="1" parent="1">
          <mxGeometry x="270" y="680" width="80" height="80" as="geometry" />
        </mxCell>
        <mxCell id="CUs4rStnzdPTpRsURDmQ-77" style="edgeStyle=orthogonalEdgeStyle;rounded=0;orthogonalLoop=1;jettySize=auto;html=1;exitX=0.5;exitY=1;exitDx=0;exitDy=0;entryX=0.5;entryY=0;entryDx=0;entryDy=0;" edge="1" parent="1" source="CUs4rStnzdPTpRsURDmQ-66" target="CUs4rStnzdPTpRsURDmQ-67">
          <mxGeometry relative="1" as="geometry" />
        </mxCell>
        <mxCell id="CUs4rStnzdPTpRsURDmQ-66" value="采用公式（6）~（9）进行更新" style="rounded=0;whiteSpace=wrap;html=1;" vertex="1" parent="1">
          <mxGeometry x="170" y="800" width="280" height="60" as="geometry" />
        </mxCell>
        <mxCell id="CUs4rStnzdPTpRsURDmQ-78" style="edgeStyle=orthogonalEdgeStyle;rounded=0;orthogonalLoop=1;jettySize=auto;html=1;exitX=0.5;exitY=1;exitDx=0;exitDy=0;entryX=0.5;entryY=0;entryDx=0;entryDy=0;" edge="1" parent="1" source="CUs4rStnzdPTpRsURDmQ-67" target="CUs4rStnzdPTpRsURDmQ-68">
          <mxGeometry relative="1" as="geometry" />
        </mxCell>
        <mxCell id="CUs4rStnzdPTpRsURDmQ-67" value="公式（10）~（13）对Xt进行社区学习,得到Xt+1" style="rounded=0;whiteSpace=wrap;html=1;" vertex="1" parent="1">
          <mxGeometry x="170" y="890" width="280" height="60" as="geometry" />
        </mxCell>
        <mxCell id="CUs4rStnzdPTpRsURDmQ-81" style="edgeStyle=orthogonalEdgeStyle;rounded=0;orthogonalLoop=1;jettySize=auto;html=1;exitX=0;exitY=0.5;exitDx=0;exitDy=0;entryX=0;entryY=0.5;entryDx=0;entryDy=0;" edge="1" parent="1" source="CUs4rStnzdPTpRsURDmQ-68" target="CUs4rStnzdPTpRsURDmQ-60">
          <mxGeometry relative="1" as="geometry" />
        </mxCell>
        <mxCell id="CUs4rStnzdPTpRsURDmQ-68" value="t=t+1" style="rounded=0;whiteSpace=wrap;html=1;" vertex="1" parent="1">
          <mxGeometry x="170" y="980" width="280" height="60" as="geometry" />
        </mxCell>
        <mxCell id="CUs4rStnzdPTpRsURDmQ-69" value="结束" style="rounded=1;whiteSpace=wrap;html=1;" vertex="1" parent="1">
          <mxGeometry x="560" y="690" width="120" height="60" as="geometry" />
        </mxCell>
      </root>
    </mxGraphModel>
  </diagram>
</mxfile>
